<svg width="4071" height="912" viewBox="0 0 4071 912" fill="none" xmlns="http://www.w3.org/2000/svg">
<path d="M710.438 217.688V702.345C710.438 713.458 702.396 721.541 691.242 721.541H634.827C624.684 721.541 616.682 713.095 616.682 702.345V198.533C616.682 180.226 605.408 169.355 586.455 169.355H434.345C415.392 169.355 404.117 180.226 404.117 198.533V702.345C404.117 703.679 403.996 705.012 403.753 706.265C403.39 708.124 402.824 709.862 402.016 711.478C401.086 713.256 399.955 714.832 398.621 716.206C395.226 719.56 390.458 721.541 384.921 721.541H329.557C324.021 721.541 319.252 719.56 315.858 716.206C314.484 714.832 313.352 713.256 312.463 711.478C311.655 709.862 311.089 708.124 310.726 706.265C310.483 705.012 310.362 703.679 310.362 702.345V198.533C310.362 180.226 299.087 169.355 280.134 169.355H123.983C105.03 169.355 93.7551 180.226 93.7551 198.533V702.345C93.7551 713.095 85.7536 721.541 75.6103 721.541H19.1956C8.04193 721.541 0 713.458 0 702.345V217.688C0 207.948 3.07129 200.149 9.41593 193.804L119.255 83.9654C125.842 77.3783 132.995 74.5898 143.138 74.5898H260.979C271.122 74.5898 278.275 77.3783 284.862 83.9654L357.239 156.343L429.617 83.9654C436.204 77.3783 443.357 74.5898 453.5 74.5898H567.299C577.443 74.5898 584.596 77.3783 591.183 83.9654L701.022 193.804C707.366 200.149 710.438 207.948 710.438 217.688Z" fill="white"/>
<path d="M913.318 507.583C919.864 514.21 927.017 516.999 937.16 516.999H1093.31C1100.22 516.999 1110.28 515.907 1118.41 506.37L1238.07 387.762L1238.51 387.277C1245.74 378.831 1248.53 372.001 1248.53 362.828V358.827C1248.53 349.573 1245.62 342.541 1239.12 335.995L1129.28 226.196C1123.05 219.892 1115.05 216.699 1105.43 216.699H918.975C908.872 216.699 901.719 219.528 895.173 226.156L785.334 335.995C777.898 343.43 774.867 350.341 774.867 359.837V579.475C774.867 588.77 777.777 595.801 784.324 602.348L894.122 712.147C900.345 718.41 908.387 721.563 918.005 721.563H1102.4C1112.55 721.563 1119.7 718.774 1126.29 712.187L1236.13 602.308C1243.52 594.912 1246.51 588.002 1246.51 578.465V552.419C1246.51 541.872 1237.94 533.264 1227.36 533.264H1170.9C1159.99 533.264 1151.75 541.508 1151.75 552.419V597.62C1151.75 615.926 1140.47 626.797 1121.56 626.797H898.85C880.018 626.797 869.633 616.452 869.633 597.62V463.938L913.318 507.583ZM869.633 341.693C869.633 322.78 880.584 311.465 898.85 311.465H1124.55C1142.86 311.465 1153.77 322.78 1153.77 341.693V348.441L1079.94 422.233H899.861C899.456 422.233 898.971 422.273 898.527 422.273H898.406C877.715 422.152 869.633 414.232 869.633 394.066V341.693Z" fill="white"/>
<path d="M1680.63 575.412C1680.63 580.383 1678.53 585.192 1674.53 589.192L1553.62 711.114C1546.1 718.631 1539.11 721.541 1528.73 721.541H1490.46C1480.31 721.541 1473.16 718.752 1466.57 712.165L1352.69 598.285C1345.26 590.849 1342.27 583.939 1342.27 574.402V299.319H1283.87C1273.28 299.319 1264.68 290.752 1264.68 280.164V223.749C1264.68 213.202 1273.28 204.554 1283.87 204.554H1342.27V93.745C1342.27 83.1975 1350.87 74.5898 1361.46 74.5898H1417.88C1428.42 74.5898 1437.03 83.1975 1437.03 93.745V204.554H1647.62C1658.73 204.554 1666.81 212.636 1666.81 223.749V280.164C1666.81 291.277 1658.73 299.319 1647.62 299.319H1437.03V597.598C1437.03 616.43 1447.38 626.775 1466.25 626.775H1506.22L1608.66 524.372C1612.82 520.21 1618.32 517.947 1623.77 518.229C1628.7 518.512 1633.19 520.775 1636.46 524.614L1674.41 561.591C1678.49 565.632 1680.63 570.401 1680.63 575.412Z" fill="white"/>
<path d="M4062.39 235.895V763.833C4062.39 772.805 4059.76 779.553 4053.42 787.151L4052.93 787.716L3939.05 901.597C3932.51 908.184 3921.31 911.012 3911.17 911.012H3765.12C3754.98 911.012 3747.87 908.224 3741.24 901.597L3623.32 783.675C3615.88 776.24 3612.89 769.329 3612.89 759.792V748.941C3612.89 738.03 3621.13 729.786 3632.09 729.786H3688.5C3699.05 729.786 3707.66 738.394 3707.66 748.941V787.029C3707.66 805.902 3718 816.247 3736.87 816.247H3938.41C3957.32 816.247 3968.63 805.336 3968.63 787.029V668.502L3924.95 712.187C3918.4 718.774 3911.29 721.562 3901.15 721.562H3756.03C3745.89 721.562 3738.73 718.774 3732.15 712.187L3622.31 602.348C3615.96 596.003 3612.89 588.204 3612.89 578.465V235.895C3612.89 224.782 3620.93 216.699 3632.09 216.699H3688.5C3698.64 216.699 3706.65 225.145 3706.65 235.895V597.62C3706.65 615.926 3717.92 626.797 3736.87 626.797H3939.42C3960.43 626.797 3968.63 618.917 3968.63 598.63V235.895C3968.63 224.782 3976.68 216.699 3987.79 216.699H4044.2C4054.39 216.699 4062.39 225.145 4062.39 235.895Z" fill="white"/>
<path d="M2187.03 335.954L2077.19 226.115C2070.69 219.609 2063.61 216.699 2054.36 216.699H1873.96C1863.86 216.699 1856.71 219.528 1850.12 226.115L1740.28 335.954C1732.97 343.269 1729.85 350.381 1729.85 359.797V385.843C1729.85 396.956 1737.9 404.998 1749.01 404.998H1805.46C1816.54 404.998 1824.62 396.956 1824.62 385.843V341.652C1824.62 322.457 1835.61 311.465 1854.81 311.465H2073.47C2091.78 311.465 2102.69 322.74 2102.69 341.652V472.303L2059.05 428.659C2052.42 422.071 2045.31 419.243 2035.2 419.243H1869.96C1860.18 419.243 1853.96 421.789 1847.09 428.659L1733.21 542.539C1726.01 549.772 1722.78 556.804 1722.78 565.371V571.352C1722.78 580.647 1725.69 587.719 1732.2 594.225L1850.12 712.147C1856.75 718.734 1863.86 721.563 1874 721.563H2117.52C2118.45 721.563 2119.34 721.563 2120.23 721.482C2120.76 721.522 2121.32 721.563 2121.85 721.563H2178.3C2189.74 721.563 2197.46 713.844 2197.46 702.407V646.963C2197.46 646.316 2197.46 645.629 2197.46 644.942V359.797C2197.46 350.381 2194.35 343.269 2187.03 335.954ZM2102.69 626.797H1846.76C1827.93 626.797 1817.55 616.411 1817.55 597.579V540.154C1817.55 521.242 1828.46 514.008 1846.76 514.008H2073.47C2094.49 514.008 2102.69 521.929 2102.69 542.215V626.797Z" fill="white"/>
<path d="M2726.14 335.995L2616.3 226.156C2609.96 219.811 2602.16 216.699 2592.46 216.699H2420.14C2410 216.699 2402.89 219.528 2396.26 226.156L2355.68 266.769V235.895C2355.68 225.145 2347.68 216.699 2337.54 216.699H2281.13C2269.97 216.699 2261.93 224.782 2261.93 235.895V891.817C2261.93 903.334 2269.61 911.012 2281.13 911.012H2337.54C2348.21 911.012 2355.68 903.132 2355.68 891.817V671.533L2396.3 712.187C2402.89 718.774 2410.04 721.562 2420.18 721.562H2592.5C2602.08 721.562 2610.12 718.41 2616.34 712.187L2726.22 602.308C2732.77 595.68 2735.6 588.568 2735.6 578.465V359.797C2735.6 349.694 2732.73 342.541 2726.14 335.995ZM2640.83 597.62C2640.83 616.452 2630.08 626.797 2610.64 626.797H2385.91C2364.41 626.797 2355.68 618.674 2355.68 598.63V339.672C2355.68 319.668 2364.41 311.465 2385.87 311.465H2610.6C2630.08 311.465 2640.83 321.85 2640.83 340.682V597.62Z" fill="white"/>
<path d="M3538.05 335.954L3428.22 226.115C3421.71 219.609 3414.64 216.699 3405.38 216.699H3224.98C3214.88 216.699 3207.73 219.528 3201.14 226.115L3091.3 335.954C3083.99 343.269 3080.88 350.381 3080.88 359.797V385.843C3080.88 396.956 3088.92 404.998 3100.03 404.998H3156.49C3167.56 404.998 3175.64 396.956 3175.64 385.843V341.652C3175.64 322.457 3186.63 311.465 3205.83 311.465H3424.5C3442.8 311.465 3453.72 322.74 3453.72 341.652V472.303L3410.07 428.659C3403.44 422.071 3396.33 419.243 3386.23 419.243H3220.98C3211.2 419.243 3204.98 421.789 3198.11 428.659L3084.23 542.539C3077.04 549.772 3073.8 556.804 3073.8 565.371V571.352C3073.8 580.647 3076.71 587.719 3083.22 594.225L3201.14 712.147C3207.77 718.734 3214.88 721.563 3225.03 721.563H3468.55C3469.48 721.563 3470.36 721.563 3471.25 721.482C3471.78 721.522 3472.34 721.563 3472.87 721.563H3529.33C3540.76 721.563 3548.48 713.844 3548.48 702.407V646.963C3548.48 646.316 3548.48 645.629 3548.48 644.942V359.797C3548.48 350.381 3545.37 343.269 3538.05 335.954ZM3453.72 626.797H3197.79C3178.96 626.797 3168.57 616.411 3168.57 597.579V540.154C3168.57 521.242 3179.48 514.008 3197.79 514.008H3424.5C3445.51 514.008 3453.72 521.929 3453.72 542.215V626.797Z" fill="white"/>
<path d="M3057.89 645.981V702.396C3057.89 713.711 3050.37 721.551 3039.7 721.551H2770.68C2759.53 721.551 2751.48 713.509 2751.48 702.396V645.981C2751.48 635.433 2760.09 626.785 2770.68 626.785H2858.29V123.983C2858.29 105.717 2846.98 94.7654 2828.11 94.7654H2771.65C2760.54 94.7654 2752.49 86.7235 2752.49 75.6103V19.1956C2752.49 7.71863 2760.17 0 2771.65 0H2804.91C2815.01 0 2822.12 2.82882 2828.75 9.45634L2941.66 123.377C2949.02 130.732 2952.05 137.642 2952.05 147.179V597.608C2952.05 615.915 2963.32 626.785 2982.28 626.785H3039.7C3049.88 626.785 3057.89 635.231 3057.89 645.981Z" fill="white"/>
</svg>
